<svg width="25" height="24" viewBox="0 0 25 24" fill="none" xmlns="http://www.w3.org/2000/svg">
<path d="M17.525 22H7.72501C6.02501 22 4.625 20.61 4.625 18.9V5.10001C4.625 3.40001 6.01501 2 7.72501 2H17.525C19.225 2 20.625 3.39001 20.625 5.10001V18.9C20.625 20.61 19.235 22 17.525 22Z" stroke="#8A8A8A" stroke-width="1.5" stroke-linecap="round" stroke-linejoin="round"/>
<path d="M19.125 13H6.125C5.295 13 4.625 12.33 4.625 11.5V9.5C4.625 8.67 5.295 8 6.125 8H19.125C19.955 8 20.625 8.67 20.625 9.5V11.5C20.625 12.33 19.955 13 19.125 13Z" stroke="#8A8A8A" stroke-width="1.5" stroke-linecap="round" stroke-linejoin="round"/>
<path d="M9.11951 17.7H9.12849" stroke="#8A8A8A" stroke-width="1.5" stroke-linecap="round" stroke-linejoin="round"/>
<path d="M16.1195 17.7H16.1285" stroke="#8A8A8A" stroke-width="1.5" stroke-linecap="round" stroke-linejoin="round"/>
<path d="M10.125 5H15.125" stroke="#8A8A8A" stroke-width="1.5" stroke-linecap="round" stroke-linejoin="round"/>
</svg>
